<svg width="572" height="548" viewBox="0 0 572 548" fill="none" xmlns="http://www.w3.org/2000/svg">
<path d="M0.35 548V522.45C22.05 518.717 38.3833 514.517 49.35 509.85C60.55 505.183 69.3 498.067 75.6 488.5C82.1333 478.7 89.0167 464.467 96.25 445.8L227.15 111.55L195.3 40.15L298.55 0.949971L496.65 480.45C501.083 490.717 505.867 498.767 511 504.6C516.133 510.2 523.367 514.283 532.7 516.85C542.033 519.417 555.1 521.283 571.9 522.45V548H286.3V522.45C306.367 521.75 321.883 520.233 332.85 517.9C344.05 515.333 350.817 510.433 353.15 503.2C355.483 495.733 353.617 484.3 347.55 468.9L245.35 190.65H242.55L144.2 446.85C138.367 463.65 136.267 476.95 137.9 486.75C139.767 496.317 146.767 503.783 158.9 509.15C171.033 514.283 189.583 518.717 214.55 522.45V548H0.35ZM141.4 394V354.8H364.7V394H141.4Z" fill="#3D1212"/>
</svg>