<?xml version="1.0" standalone="no"?>
<!DOCTYPE svg PUBLIC "-//W3C//DTD SVG 20010904//EN"
 "http://www.w3.org/TR/2001/REC-SVG-20010904/DTD/svg10.dtd">
<svg version="1.0" xmlns="http://www.w3.org/2000/svg"
 width="460.000000pt" height="516.000000pt" viewBox="0 0 460.000000 516.000000"
 preserveAspectRatio="xMidYMid meet">

<g transform="translate(0.000000,516.000000) scale(0.100000,-0.100000)"
fill="#000000" stroke="none">
<path d="M0 2580 l0 -2580 2300 0 2300 0 0 2580 0 2580 -2300 0 -2300 0 0
-2580z m2225 2450 c254 -7 338 -13 466 -34 447 -72 774 -195 1057 -399 479
-344 743 -881 793 -1617 14 -205 6 -639 -16 -809 -92 -728 -396 -1281 -890
-1623 -361 -250 -795 -381 -1385 -418 -125 -8 -1369 -25 -2128 -30 l-63 0 3
126 3 125 103 42 c126 50 176 91 223 183 l34 68 8 1225 c10 1514 3 2525 -18
2625 -31 145 -99 215 -267 277 l-88 31 0 119 0 119 928 -1 c510 0 1067 -4
1237 -9z"/>
<path d="M1570 2581 l0 -2029 85 -7 c107 -9 524 12 628 31 249 47 524 202 661
373 249 309 383 717 427 1301 13 173 7 613 -11 775 -46 423 -149 747 -322
1006 -85 128 -266 309 -378 377 -96 59 -300 142 -408 166 -92 21 -311 36 -519
36 l-163 0 0 -2029z"/>
</g>
</svg>
