<?xml version="1.0" standalone="no"?>
<!DOCTYPE svg PUBLIC "-//W3C//DTD SVG 20010904//EN"
 "http://www.w3.org/TR/2001/REC-SVG-20010904/DTD/svg10.dtd">
<svg version="1.0" xmlns="http://www.w3.org/2000/svg"
 width="391.000000pt" height="516.000000pt" viewBox="0 0 391.000000 516.000000"
 preserveAspectRatio="xMidYMid meet">

<g transform="translate(0.000000,516.000000) scale(0.100000,-0.100000)"
fill="#000000" stroke="none">
<path d="M0 2580 l0 -2580 1955 0 1955 0 0 2580 0 2580 -1955 0 -1955 0 0
-2580z m3690 1865 l0 -565 -244 0 -244 0 -18 48 c-111 304 -223 491 -338 568
-104 69 -173 85 -410 95 -116 4 -340 8 -498 9 l-288 0 0 -860 0 -860 118 0
c217 1 495 18 549 35 80 24 142 87 201 203 45 88 80 181 96 255 l6 27 200 0
200 0 0 -725 0 -725 -199 0 -198 0 -33 103 c-44 141 -111 267 -167 317 -90 79
-211 100 -580 100 l-193 0 0 -956 0 -957 425 7 c233 4 462 11 509 15 267 25
454 251 617 747 l41 124 226 0 225 0 -6 -487 c-7 -457 -20 -789 -33 -802 -3
-3 -791 -8 -1750 -9 l-1744 -4 0 104 c0 56 4 109 8 116 5 7 43 26 85 42 96 37
176 87 210 132 47 61 58 130 68 428 14 393 5 3426 -10 3504 -15 75 -33 111
-85 164 -46 49 -88 73 -196 112 l-75 28 -3 116 -3 116 1766 0 1765 0 0 -565z"/>
</g>
</svg>
