<?xml version="1.0" standalone="no"?>
<!DOCTYPE svg PUBLIC "-//W3C//DTD SVG 20010904//EN"
 "http://www.w3.org/TR/2001/REC-SVG-20010904/DTD/svg10.dtd">
<svg version="1.0" xmlns="http://www.w3.org/2000/svg"
 width="391.000000pt" height="516.000000pt" viewBox="0 0 391.000000 516.000000"
 preserveAspectRatio="xMidYMid meet">

<g transform="translate(0.000000,516.000000) scale(0.100000,-0.100000)" stroke="none">
<path d="M1003 4938 c4 -46 7 -99 7 -119 0 -34 2 -36 58 -53 157 -49 241 -114
282 -222 21 -53 24 -84 31 -294 10 -319 10 -3070 -1 -3345 -9 -242 -18 -290
-73 -371 -39 -60 -107 -102 -222 -139 l-85 -28 0 -113 0 -114 945 0 945 0 0
114 0 113 -87 28 c-166 54 -239 126 -280 275 -17 61 -18 167 -18 1905 0 1736
1 1844 18 1905 21 75 58 142 101 183 33 31 143 87 214 108 l42 12 0 57 c0 31
3 85 6 119 l7 61 -948 0 -948 0 6 -82z"/>
</g>
</svg>
