<svg version="1.0" xmlns="http://www.w3.org/2000/svg"
 width="516.000000pt" height="516.000000pt" viewBox="0 0 516.000000 516.000000"
 preserveAspectRatio="xMidYMid meet">

<g transform="translate(0.000000,516.000000) scale(0.100000,-0.100000)"
fill="#000000" stroke="none">
<path d="M0 4761 l0 -108 63 -23 c158 -57 231 -116 263 -212 9 -27 20 -93 25
-146 12 -134 11 -3261 -1 -3385 -19 -198 -82 -275 -280 -342 l-65 -22 0 -109
0 -109 628 -3 627 -2 0 113 0 113 -49 13 c-137 35 -241 119 -275 223 -9 29
-21 103 -26 163 -6 61 -10 605 -10 1210 0 993 -7 1442 -26 1743 l-6 102 30 0
c30 0 32 -3 56 -84 14 -46 26 -87 26 -90 0 -3 111 -324 246 -714 135 -389 296
-851 357 -1027 61 -176 183 -529 272 -785 l162 -465 295 -3 294 -2 123 332
c68 183 173 466 233 628 60 162 149 403 198 535 49 132 145 393 215 580 70
187 152 408 182 490 31 83 88 245 128 360 l72 210 33 0 34 0 -2 -55 c-17 -419
-22 -747 -22 -1700 0 -619 -5 -1183 -10 -1253 -19 -256 -57 -316 -240 -378
l-105 -36 0 -109 0 -109 853 -3 852 -2 0 113 0 113 -58 18 c-178 53 -243 120
-274 282 -20 104 -19 3443 1 3529 33 148 98 215 261 270 l65 22 3 111 3 112
-782 -2 -781 -3 -103 -280 c-244 -667 -682 -1867 -821 -2250 -30 -82 -61 -163
-68 -180 l-13 -30 -26 80 c-14 44 -157 469 -317 945 -161 476 -356 1056 -434
1290 l-143 425 -831 3 -832 2 0 -109z"/>
</g>
</svg>
