<svg width="535" height="534" viewBox="0 0 535 534" fill="none" xmlns="http://www.w3.org/2000/svg">
<path d="M0.0500015 534V508.45L59.2 493.05V40.85L0.0500015 26.15V0.949958H249.95C286.35 0.949958 318.433 6.7833 346.2 18.45C373.967 29.8833 395.667 46.9167 411.3 69.55C426.933 91.95 434.75 119.6 434.75 152.5C434.75 186.1 426.233 214.217 409.2 236.85C392.4 259.483 368.717 276.283 338.15 287.25L471.5 494.8L534.85 508.45V534H345.85L206.2 301.95H178.2V493.05L257.3 508.45V534H0.0500015ZM178.2 264.5H188C212.967 264.5 233.15 261.117 248.55 254.35C263.95 247.583 276.433 238.483 286 227.05C296.267 215.617 303.5 202.9 307.7 188.9C311.9 174.667 314 160.2 314 145.5C314 120.533 308.4 99.7667 297.2 83.2C286 66.4 271.417 54.3833 253.45 47.15C245.517 43.8833 236.883 41.6666 227.55 40.5C218.45 39.1 206.783 38.4 192.55 38.4H178.2V264.5Z" fill="url(#paint0_linear_163_156)"/>
<defs>
<linearGradient id="paint0_linear_163_156" x1="241.414" y1="600.5" x2="241.414" y2="-64.5" gradientUnits="userSpaceOnUse">
<stop stop-color="#3D1212"/>
<stop offset="1" stop-color="#3D1212" stop-opacity="0"/>
</linearGradient>
</defs>
</svg>
